PathFileType	4	(X/Y/Z)	/Users/itak/Documents/Research/Walk-IL/dataset/trc/00174_00008.trc
DataRate	CameraRate	NumFrames	NumMarkers	Units	OrigDataRate	OrigDataStartFrame	OrigNumFrames
100.000000	100.000000	4	53	mm	100.000000	0	614
Frame#	Time	RPSI			LPSI			L3			STRN			T10			C7			CLAV			RBAK			LBAK			LSHO			LUPA			LAEL			LAOL			LWTS			LWPS			LFRA			LIFD			LHPS			LHTS			RSHO			RUPA			RAEL			RAOL			RWTS			RWPS			RFRA			RIFD			RHTS			RHPS			RBHD			LFHD			RFHD			LBHD			LHIP			RHIP			RASI			LASI			LKNE			LTHI			LANK			LTIP			LTOE			LMT1			LMT5			LHEE			RKNE			RTHI			RANK			RTIP			RTOE			RMT1			RMT5			RHEE			
		X1	Y1	Z1	X2	Y2	Z2	X3	Y3	Z3	X4	Y4	Z4	X5	Y5	Z5	X6	Y6	Z6	X7	Y7	Z7	X8	Y8	Z8	X9	Y9	Z9	X10	Y10	Z10	X11	Y11	Z11	X12	Y12	Z12	X13	Y13	Z13	X14	Y14	Z14	X15	Y15	Z15	X16	Y16	Z16	X17	Y17	Z17	X18	Y18	Z18	X19	Y19	Z19	X20	Y20	Z20	X21	Y21	Z21	X22	Y22	Z22	X23	Y23	Z23	X24	Y24	Z24	X25	Y25	Z25	X26	Y26	Z26	X27	Y27	Z27	X28	Y28	Z28	X29	Y29	Z29	X30	Y30	Z30	X31	Y31	Z31	X32	Y32	Z32	X33	Y33	Z33	X34	Y34	Z34	X35	Y35	Z35	X36	Y36	Z36	X37	Y37	Z37	X38	Y38	Z38	X39	Y39	Z39	X40	Y40	Z40	X41	Y41	Z41	X42	Y42	Z42	X43	Y43	Z43	X44	Y44	Z44	X45	Y45	Z45	X46	Y46	Z46	X47	Y47	Z47	X48	Y48	Z48	X49	Y49	Z49	X50	Y50	Z50	X51	Y51	Z51	X52	Y52	Z52	X53	Y53	Z53	

1	0	862.6575317382812	1054.463134765625	226.800048828125	867.2659912109375	1051.390014648438	102.5047454833984	867.001953125	1089.871459960938	166.0718994140625	1120.587280273438	1303.03125	161.2679901123047	831.9487915039062	1243.708251953125	155.9226989746094	885.9854736328125	1516.152587890625	141.7986297607422	1089.526977539062	1416.037963867188	149.9763641357422	823.7564697265625	1339.393676757812	251.986328125	881.83056640625	1489.613525390625	41.63562393188477	961.4440307617188	1478.1748046875	-35.40895080566406	935.5161743164062	1343.508056640625	-108.0223388671875	962.875	1124.782836914062	-121.1999740600586	905.3050537109375	1110.7119140625	-55.34374618530273	1078.15966796875	901.1384887695312	-65.74287414550781	1004.267456054688	873.1586303710938	-116.6582183837891	983.704833984375	1014.436706542969	-128.9536285400391	1096.626586914062	717.5370483398438	-30.94726181030273	1027.139770507812	804.270263671875	-105.6950454711914	1094.99462890625	823.0774536132812	-80.35921478271484	948.7340087890625	1497.391723632812	325.6051330566406	929.4710693359375	1430.764038085938	395.6421203613281	924.409423828125	1141.3359375	450.7656555175781	917.0602416992188	1133.200317382812	354.5186157226562	1068.9345703125	919.4940795898438	417.5431823730469	1001.19677734375	898.9591674804688	473.3627624511719	953.2301635742188	1069.262451171875	466.7001647949219	1090.344360351562	736.3524169921875	387.1511840820312	1100.4560546875	827.1942749023438	423.3117980957031	1032.55615234375	816.7001342773438	464.7171630859375	953.9212036132812	1686.94970703125	214.0754547119141	1117.58984375	1718.859375	73.54261779785156	1123.396606445312	1724.187377929688	203.6024017333984	939.1679077148438	1689.041625976562	77.31242370605469	981.3428344726562	987.3504638671875	-9.642770767211914	1015.599304199219	1015.968444824219	353.7249450683594	1096.522705078125	1043.340454101562	298.4324951171875	1096.296997070312	1029.564697265625	39.70822906494141	979.756591796875	492.712890625	17.2847728729248	989.0404663085938	635.49609375	-9.200745582580566	884.77490234375	39.16854858398438	4.407450675964355	934.89599609375	273.7089538574219	-2.23769474029541	1104.770629882812	37.31610870361328	11.48538208007812	1058.8544921875	37.90444946289062	63.19026565551758	989.4884033203125	31.49875640869141	-44.56772232055664	838.99658203125	38.76491546630859	77.65853118896484	1012.199462890625	515.9683837890625	338.6951599121094	1062.889038085938	782.06494140625	365.6898498535156	914.0099487304688	37.08552551269531	343.5465393066406	1016.487121582031	398.3854675292969	320.4370727539062	1137.652221679688	39.70169830322266	305.1880493164062	1080.509521484375	37.77439117431641	261.0549621582031	1027.474853515625	33.81971740722656	377.8663940429688	861.150146484375	36.9102897644043	275.5323791503906	
2	0.01	862.81396484375	1054.39306640625	226.8227844238281	867.3584594726562	1051.33935546875	102.5259094238281	867.114501953125	1089.813354492188	166.1027984619141	1120.670288085938	1303.063720703125	161.1995239257812	832.042236328125	1243.61767578125	155.9893035888672	885.9581909179688	1516.103881835938	141.8472290039062	1089.499389648438	1415.961059570312	150.0289001464844	823.85498046875	1339.318237304688	252.0437927246094	881.7582397460938	1489.560791015625	41.69364547729492	961.328369140625	1478.163452148438	-35.39740371704102	935.407470703125	1343.4951171875	-107.9992904663086	962.8530883789062	1124.78564453125	-121.2420425415039	905.336669921875	1110.686767578125	-55.3590087890625	1078.248046875	901.177490234375	-65.84004211425781	1004.405822753906	873.238525390625	-116.7936248779297	983.7360229492188	1014.449157714844	-129.0242767333984	1096.826171875	717.5440673828125	-31.10889434814453	1027.266967773438	804.284912109375	-105.8285446166992	1095.08642578125	823.1084594726562	-80.48820495605469	948.8320922851562	1497.350341796875	325.6290893554688	929.595947265625	1430.718505859375	395.653564453125	924.5516967773438	1141.30810546875	450.8175048828125	917.1475830078125	1133.17138671875	354.5576477050781	1069.070678710938	919.4656982421875	417.5073547363281	1001.333068847656	898.9383544921875	473.2733459472656	953.3736572265625	1069.227905273438	466.7197570800781	1090.43115234375	736.3062133789062	387.1052856445312	1100.639892578125	827.1895751953125	423.2208862304688	1032.691284179688	816.6873779296875	464.6426086425781	953.9265747070312	1686.935180664062	214.0980072021484	1117.432983398438	1718.849487304688	73.366943359375	1123.387817382812	1724.204345703125	203.3978881835938	939.0128173828125	1688.994018554688	77.3699951171875	981.4889526367188	987.3253784179688	-9.644009590148926	1015.859985351562	1015.95654296875	353.6850280761719	1096.743774414062	1043.334716796875	298.3667602539062	1096.408813476562	1029.619506835938	39.6129035949707	979.8621826171875	492.7318420410156	17.26990509033203	989.1946411132812	635.4905395507812	-9.242629051208496	884.7808227539062	39.17243194580078	4.416666984558105	934.9616088867188	273.6993408203125	-2.256739139556885	1104.776489257812	37.3091926574707	11.48207187652588	1058.867309570312	37.90359115600586	63.18152236938477	989.4907836914062	31.50214004516602	-44.56674575805664	839.0114135742188	38.77334976196289	77.66900634765625	1012.366149902344	515.9990234375	338.6583251953125	1063.12451171875	782.1034545898438	365.5833740234375	914.0150756835938	37.09501266479492	343.5387573242188	1016.607788085938	398.3774719238281	320.3952331542969	1137.654907226562	39.6909065246582	305.1925964355469	1080.513427734375	37.75587463378906	261.0542297363281	1027.470947265625	33.82449722290039	377.8522338867188	861.154541015625	36.92382049560547	275.5273132324219	
3	0.02	863.0032958984375	1054.313842773438	226.8511962890625	867.4708251953125	1051.278442382812	102.548454284668	867.2625732421875	1089.742919921875	166.136962890625	1120.774291992188	1303.104125976562	161.1117553710938	832.1499633789062	1243.511962890625	156.0738830566406	885.9258422851562	1516.0439453125	141.9084167480469	1089.461303710938	1415.858276367188	150.0983123779297	823.9741821289062	1339.2236328125	252.1169586181641	881.6640014648438	1489.4931640625	41.77088165283203	961.1810302734375	1478.1494140625	-35.38115692138672	935.2737426757812	1343.481811523438	-107.9724502563477	962.8215942382812	1124.791015625	-121.2934494018555	905.3690795898438	1110.658447265625	-55.37530899047852	1078.350219726562	901.2257690429688	-65.96583557128906	1004.555786132812	873.3241577148438	-116.9503021240234	983.7662963867188	1014.466674804688	-129.1145782470703	1097.055786132812	717.5474243164062	-31.31340026855469	1027.415649414062	804.3018798828125	-105.9934310913086	1095.190551757812	823.1481323242188	-80.650634765625	948.9552612304688	1497.297607421875	325.6582641601562	929.74755859375	1430.663330078125	395.6673889160156	924.7357177734375	1141.275024414062	450.8802795410156	917.2634887695312	1133.141479492188	354.6073303222656	1069.232055664062	919.40234375	417.4950256347656	1001.500244140625	898.9121704101562	473.1722717285156	953.561767578125	1069.187377929688	466.7443237304688	1090.5068359375	736.23583984375	387.0442504882812	1100.856201171875	827.1741943359375	423.1040649414062	1032.845092773438	816.6661987304688	464.5544128417969	953.9368896484375	1686.916381835938	214.1275787353516	1117.236450195312	1718.834350585938	73.15196990966797	1123.379760742188	1724.225830078125	203.137451171875	938.81201171875	1688.938110351562	77.44919586181641	981.6651000976562	987.2955932617188	-9.652229309082031	1016.171997070312	1015.941101074219	353.6314086914062	1097.016357421875	1043.326538085938	298.2799682617188	1096.542358398438	1029.682495117188	39.49182510375977	979.9844360351562	492.7520751953125	17.25063323974609	989.3765258789062	635.4838256835938	-9.298336982727051	884.787841796875	39.17771530151367	4.425714492797852	935.0418090820312	273.68798828125	-2.280101537704468	1104.784057617188	37.30234909057617	11.47853088378906	1058.881225585938	37.90376663208008	63.17234039306641	989.4927978515625	31.50362777709961	-44.56576919555664	839.0311279296875	38.78147506713867	77.68315887451172	1012.55810546875	516.0245971679688	338.6042175292969	1063.415893554688	782.1592407226562	365.4496459960938	914.0197143554688	37.10563278198242	343.5272521972656	1016.751831054688	398.3624267578125	320.3457946777344	1137.65966796875	39.67902755737305	305.1976928710938	1080.518798828125	37.736572265625	261.0525207519531	1027.469116210938	33.82867813110352	377.8377685546875	861.1605224609375	36.93860244750977	275.5213317871094	
4	0.03	863.2136840820312	1054.23291015625	226.8829193115234	867.597900390625	1051.212158203125	102.5691223144531	867.4420166015625	1089.664306640625	166.169921875	1120.895263671875	1303.150390625	161.0075988769531	832.263427734375	1243.398803710938	156.1729736328125	885.8904418945312	1515.975708007812	141.9798736572266	1089.416015625	1415.736572265625	150.1782073974609	824.10888671875	1339.113525390625	252.2039031982422	881.5496826171875	1489.412841796875	41.86594009399414	961.008056640625	1478.133178710938	-35.36022186279297	935.1213989257812	1343.469848632812	-107.9437255859375	962.7797241210938	1124.799438476562	-121.3514633178711	905.397216796875	1110.62939453125	-55.39044952392578	1078.458129882812	901.2806396484375	-66.11775207519531	1004.69970703125	873.4057006835938	-117.1157531738281	983.7887573242188	1014.488403320312	-129.2210235595703	1097.297607421875	717.5470581054688	-31.55315017700195	1027.573608398438	804.3203735351562	-106.1810760498047	1095.297119140625	823.1945190429688	-80.84204864501953	949.0985107421875	1497.235229492188	325.6911010742188	929.9185180664062	1430.6015625	395.6831665039062	924.9556884765625	1141.238525390625	450.94970703125	917.4082641601562	1133.112915039062	354.6663818359375	1069.40771484375	919.2943115234375	417.5214233398438	1001.688232421875	898.88037109375	473.0681762695312	953.7898559570312	1069.143798828125	466.7727355957031	1090.555786132812	736.13916015625	386.9691772460938	1101.088745117188	827.1441040039062	422.9675598144531	1033.004516601562	816.6339721679688	464.4578247070312	953.952880859375	1686.893798828125	214.1636962890625	1117.009033203125	1718.813598632812	72.90855407714844	1123.375122070312	1724.250366210938	202.8313446044922	938.5711059570312	1688.878662109375	77.55018615722656	981.8604736328125	987.2634887695312	-9.670229911804199	1016.513610839844	1015.922241210938	353.5633239746094	1097.325561523438	1043.315551757812	298.1738891601562	1096.689086914062	1029.747436523438	39.35107421875	980.1135864257812	492.7715454101562	17.22705268859863	989.5731811523438	635.4761352539062	-9.366707801818848	884.7957153320312	39.18359375	4.433815479278564	935.1315307617188	273.6756896972656	-2.306811809539795	1104.793334960938	37.29621124267578	11.47465515136719	1058.895385742188	37.90530776977539	63.16342544555664	989.4939575195312	31.50259780883789	-44.56516647338867	839.0545043945312	38.78796768188477	77.7000732421875	1012.760314941406	516.038330078125	338.531494140625	1063.745483398438	782.2255859375	365.2991943359375	914.0235595703125	37.11588668823242	343.5125122070312	1016.91015625	398.3396911621094	320.2914733886719	1137.666625976562	39.66727447509766	305.2030029296875	1080.525024414062	37.7191162109375	261.0499572753906	1027.47021484375	33.83202743530273	377.8246154785156	861.16796875	36.95333099365234	275.5151977539062	
